<svg xmlns="http://www.w3.org/2000/svg" viewBox="0 0 800 500">
  <defs>
    <linearGradient id="bg" x1="0" x2="1" y1="0" y2="1">
      <stop offset="0%" stop-color="#0c1730"/>
      <stop offset="100%" stop-color="#22375f"/>
    </linearGradient>
  </defs>
  <rect width="800" height="500" fill="url(#bg)"/>
  <path d="M300 152h108c44 0 68 18 68 60v45H290c-36 0-60-22-60-56 0-31 22-49 70-49z" fill="#ffd24d"/>
  <path d="M500 348H392c-44 0-68-18-68-60v-45h186c36 0 60 22 60 56 0 31-22 49-70 49z" fill="#42a5ff"/>
  <circle cx="394" cy="183" r="8" fill="#20314d"/>
  <circle cx="406" cy="317" r="8" fill="#e8f4ff"/>
  <text x="70" y="88" fill="#eef6ff" font-size="42" font-family="Segoe UI, Arial, sans-serif" font-weight="700">PYTHON CLASS</text>
  <text x="70" y="432" fill="#aec4de" font-size="28" font-family="Segoe UI, Arial, sans-serif">Programming Basics • 2-Day Online Training</text>
</svg>
